<?xml version="1.0" standalone="no"?>
<!DOCTYPE svg PUBLIC "-//W3C//DTD SVG 20010904//EN"
 "http://www.w3.org/TR/2001/REC-SVG-20010904/DTD/svg10.dtd">
<svg version="1.0" xmlns="http://www.w3.org/2000/svg"
 width="369.000000pt" height="372.000000pt" viewBox="0 0 369.000000 372.000000"
 preserveAspectRatio="xMidYMid meet">

<g transform="translate(0.000000,372.000000) scale(0.100000,-0.100000)"
fill="#000000" stroke="none">
<path d="M1080 3390 c43 -62 228 -308 413 -548 140 -183 183 -232 196 -226 9
4 52 9 97 12 68 3 89 0 133 -18 143 -62 200 -237 127 -396 -16 -34 -23 -61
-17 -68 4 -6 140 -183 300 -393 161 -211 294 -383 296 -383 5 0 -9 34 -78 185
l-55 120 71 7 c90 8 116 18 166 63 100 90 86 249 -27 330 -43 30 -45 30 -205
35 l-162 5 3 25 c2 14 22 104 45 200 l43 175 199 5 c208 6 219 8 273 47 95 70
96 227 2 306 -37 32 -88 47 -157 47 l-52 0 -87 -95 c-80 -86 -124 -116 -124
-82 0 6 23 98 50 202 27 105 50 209 50 233 0 78 -52 161 -125 199 -49 26 -142
23 -200 -7 -74 -38 -102 -91 -150 -288 l-39 -162 -163 0 c-124 0 -163 3 -163
13 0 6 11 55 25 107 29 113 31 171 6 225 -50 108 -159 157 -271 120 -66 -22
-114 -72 -142 -147 l-21 -59 -26 24 c-94 84 -219 195 -236 207 -16 13 -15 9 5
-20z"/>
<path d="M800 3335 c0 -4 43 -95 95 -202 52 -108 95 -200 95 -205 0 -4 -17 -8
-37 -8 -105 0 -203 -95 -203 -196 0 -56 37 -129 79 -159 55 -38 92 -45 229
-45 l122 0 -7 -27 c-4 -16 -25 -107 -48 -203 l-42 -175 -179 -5 c-98 -3 -188
-9 -199 -14 -80 -37 -128 -111 -128 -195 0 -113 74 -197 189 -215 40 -6 44 -4
79 37 120 134 156 168 169 157 11 -8 5 -46 -35 -203 -27 -105 -49 -205 -49
-222 0 -116 104 -224 216 -225 80 0 154 40 194 105 12 20 39 104 59 188 l37
152 162 3 c187 3 173 14 141 -111 -28 -109 -23 -181 16 -237 100 -144 316
-123 387 38 l20 44 21 -19 c72 -63 249 -205 252 -202 4 5 -86 126 -390 524
l-222 290 -92 -4 c-83 -3 -97 0 -146 24 -61 29 -99 69 -129 135 -28 63 -27
167 3 237 l23 51 -164 214 c-90 117 -233 305 -318 418 -165 221 -200 265 -200
255z"/>
<path d="M1743 2413 c-13 -3 -36 -18 -53 -34 -24 -25 -30 -39 -30 -74 0 -62
26 -90 84 -90 59 0 105 41 113 102 8 63 -45 108 -114 96z"/>
<path d="M1115 796 c-23 -35 -18 -381 5 -396 8 -6 66 -9 129 -8 96 3 116 6
125 21 8 12 8 22 0 35 -9 14 -28 18 -98 20 l-86 3 0 158 c0 140 -2 160 -18
174 -25 23 -39 21 -57 -7z"/>
<path d="M1666 810 c-76 -23 -130 -86 -147 -171 -36 -174 133 -310 294 -236
63 29 100 76 116 147 35 161 -111 305 -263 260z m118 -90 c44 -16 68 -66 63
-132 -4 -66 -28 -100 -84 -118 -132 -44 -229 138 -123 233 33 29 93 37 144 17z"/>
<path d="M2257 807 c-91 -30 -146 -108 -147 -210 0 -157 156 -262 296 -198 59
27 74 53 74 132 0 83 -14 99 -88 99 -41 0 -54 -4 -66 -22 -19 -27 -5 -58 28
-58 13 0 29 -7 36 -15 36 -44 -48 -90 -117 -64 -57 22 -86 71 -80 138 3 47 9
59 40 88 41 37 83 43 144 21 41 -15 68 -2 68 33 0 47 -111 81 -188 56z"/>
<path d="M2734 801 c-54 -25 -74 -55 -74 -112 0 -75 41 -114 147 -139 62 -14
79 -30 64 -59 -22 -41 -105 -37 -145 8 -21 24 -46 27 -64 9 -32 -32 0 -83 70
-113 71 -29 149 -14 198 40 19 21 25 37 25 75 0 67 -28 94 -124 123 -80 25
-103 45 -85 75 15 23 79 28 110 7 39 -25 68 -16 72 21 3 27 -2 35 -31 53 -50
31 -113 36 -163 12z"/>
<path d="M606 794 c-13 -13 -16 -45 -16 -190 0 -102 4 -183 10 -195 10 -17 22
-19 116 -19 68 0 117 5 139 14 69 29 96 126 55 193 -16 27 -18 37 -9 57 25 53
-10 121 -74 145 -46 18 -203 14 -221 -5z m218 -90 c12 -31 -13 -44 -81 -44
-66 0 -82 11 -69 45 8 23 141 21 150 -1z m10 -143 c18 -15 21 -48 6 -71 -7
-11 -29 -15 -87 -15 l-78 0 -3 44 c-2 27 1 47 9 51 19 12 136 5 153 -9z"/>
</g>
</svg>
